<svg width="143" height="30" viewBox="0 0 143 30" fill="none" xmlns="http://www.w3.org/2000/svg">
<g filter="url(#filter0_d_6_2)">
<path d="M8.503 23C7.71833 23.1467 6.94833 23.209 6.193 23.187C5.445 23.1723 4.774 23.0367 4.18 22.78C3.586 22.516 3.135 22.1017 2.827 21.537C2.55567 21.0237 2.41267 20.4993 2.398 19.964C2.38333 19.4287 2.376 18.8237 2.376 18.149V7.82H5.016V17.995C5.016 18.4717 5.01967 18.8897 5.027 19.249C5.04167 19.6083 5.11867 19.9017 5.258 20.129C5.522 20.569 5.94367 20.8147 6.523 20.866C7.10233 20.9173 7.76233 20.888 8.503 20.778V23ZM0.22 13.199V11.12H8.503V13.199H0.22ZM20.3746 23V17.28C20.3746 16.906 20.3489 16.4917 20.2976 16.037C20.2462 15.5823 20.1252 15.146 19.9346 14.728C19.7512 14.3027 19.4726 13.9543 19.0986 13.683C18.7319 13.4117 18.2332 13.276 17.6026 13.276C17.2652 13.276 16.9316 13.331 16.6016 13.441C16.2716 13.551 15.9709 13.7417 15.6996 14.013C15.4356 14.277 15.2229 14.6437 15.0616 15.113C14.9002 15.575 14.8196 16.169 14.8196 16.895L13.2466 16.224C13.2466 15.212 13.4409 14.2953 13.8296 13.474C14.2256 12.6527 14.8049 12 15.5676 11.516C16.3302 11.0247 17.2689 10.779 18.3836 10.779C19.2636 10.779 19.9896 10.9257 20.5616 11.219C21.1336 11.5123 21.5882 11.8863 21.9256 12.341C22.2629 12.7957 22.5122 13.2797 22.6736 13.793C22.8349 14.3063 22.9376 14.794 22.9816 15.256C23.0329 15.7107 23.0586 16.081 23.0586 16.367V23H20.3746ZM12.1356 23V7.16H14.5006V15.498H14.8196V23H12.1356ZM32.4301 23.33C31.2274 23.33 30.1714 23.0697 29.2621 22.549C28.3527 22.0283 27.6414 21.306 27.1281 20.382C26.6221 19.458 26.3691 18.3947 26.3691 17.192C26.3691 15.894 26.6184 14.7683 27.1171 13.815C27.6157 12.8543 28.3087 12.11 29.1961 11.582C30.0834 11.054 31.1101 10.79 32.2761 10.79C33.5081 10.79 34.5531 11.0797 35.4111 11.659C36.2764 12.231 36.9181 13.0413 37.3361 14.09C37.7541 15.1387 37.9117 16.3743 37.8091 17.797H35.1801V16.829C35.1727 15.5383 34.9454 14.596 34.4981 14.002C34.0507 13.408 33.3467 13.111 32.3861 13.111C31.3007 13.111 30.4941 13.4483 29.9661 14.123C29.4381 14.7903 29.1741 15.7693 29.1741 17.06C29.1741 18.2627 29.4381 19.194 29.9661 19.854C30.4941 20.514 31.2641 20.844 32.2761 20.844C32.9287 20.844 33.4897 20.701 33.9591 20.415C34.4357 20.1217 34.8024 19.7 35.0591 19.15L37.6771 19.942C37.2224 21.0127 36.5184 21.845 35.5651 22.439C34.6191 23.033 33.5741 23.33 32.4301 23.33ZM28.3381 17.797V15.795H36.5111V17.797H28.3381ZM100.618 23.33C99.4299 23.33 98.3922 23.0623 97.5049 22.527C96.6175 21.9917 95.9282 21.2547 95.4369 20.316C94.9529 19.37 94.7109 18.2847 94.7109 17.06C94.7109 15.8133 94.9602 14.7207 95.4589 13.782C95.9575 12.8433 96.6505 12.11 97.5379 11.582C98.4252 11.054 99.4519 10.79 100.618 10.79C101.813 10.79 102.855 11.0577 103.742 11.593C104.629 12.1283 105.319 12.869 105.81 13.815C106.301 14.7537 106.547 15.8353 106.547 17.06C106.547 18.292 106.298 19.381 105.799 20.327C105.308 21.2657 104.618 22.0027 103.731 22.538C102.844 23.066 101.806 23.33 100.618 23.33ZM100.618 20.844C101.674 20.844 102.459 20.492 102.972 19.788C103.485 19.084 103.742 18.1747 103.742 17.06C103.742 15.9087 103.482 14.992 102.961 14.31C102.44 13.6207 101.659 13.276 100.618 13.276C99.9065 13.276 99.3199 13.4373 98.8579 13.76C98.4032 14.0753 98.0659 14.519 97.8459 15.091C97.6259 15.6557 97.5159 16.312 97.5159 17.06C97.5159 18.2113 97.7762 19.1317 98.2969 19.821C98.8249 20.503 99.5985 20.844 100.618 20.844ZM118.287 23V17.28C118.287 16.906 118.262 16.4917 118.21 16.037C118.159 15.5823 118.038 15.146 117.847 14.728C117.664 14.3027 117.385 13.9543 117.011 13.683C116.645 13.4117 116.146 13.276 115.515 13.276C115.178 13.276 114.844 13.331 114.514 13.441C114.184 13.551 113.884 13.7417 113.612 14.013C113.348 14.277 113.136 14.6437 112.974 15.113C112.813 15.575 112.732 16.169 112.732 16.895L111.159 16.224C111.159 15.212 111.354 14.2953 111.742 13.474C112.138 12.6527 112.718 12 113.48 11.516C114.243 11.0247 115.182 10.779 116.296 10.779C117.176 10.779 117.902 10.9257 118.474 11.219C119.046 11.5123 119.501 11.8863 119.838 12.341C120.176 12.7957 120.425 13.2797 120.586 13.793C120.748 14.3063 120.85 14.794 120.894 15.256C120.946 15.7107 120.971 16.081 120.971 16.367V23H118.287ZM110.048 23V11.12H112.413V14.805H112.732V23H110.048ZM125.162 23V6.83H127.813V23H125.162ZM133.77 28.28L136.058 21.999L136.102 23.847L130.921 11.12H133.682L137.356 20.536H136.652L140.227 11.12H142.878L136.256 28.28H133.77Z" fill="white"/>
<path d="M43.8934 23L40.2634 11.098L42.8594 11.12L45.1804 18.743L47.5344 11.12H49.7674L52.1104 18.743L54.4424 11.12H57.0384L53.4084 23H51.3404L48.6454 14.827L45.9614 23H43.8934ZM62.7796 23.33C61.9216 23.33 61.1956 23.1687 60.6016 22.846C60.0076 22.516 59.5566 22.0797 59.2486 21.537C58.9479 20.9943 58.7976 20.3967 58.7976 19.744C58.7976 19.172 58.8929 18.6587 59.0836 18.204C59.2742 17.742 59.5676 17.346 59.9636 17.016C60.3596 16.6787 60.8729 16.4037 61.5036 16.191C61.9802 16.037 62.5376 15.8977 63.1756 15.773C63.8209 15.6483 64.5176 15.5347 65.2656 15.432C66.0209 15.322 66.8092 15.2047 67.6306 15.08L66.6846 15.619C66.6919 14.7977 66.5086 14.1927 66.1346 13.804C65.7606 13.4153 65.1299 13.221 64.2426 13.221C63.7072 13.221 63.1902 13.3457 62.6916 13.595C62.1929 13.8443 61.8446 14.2733 61.6466 14.882L59.2266 14.123C59.5199 13.1183 60.0772 12.3117 60.8986 11.703C61.7272 11.0943 62.8419 10.79 64.2426 10.79C65.2986 10.79 66.2262 10.9623 67.0256 11.307C67.8322 11.6517 68.4299 12.2163 68.8186 13.001C69.0312 13.419 69.1596 13.848 69.2036 14.288C69.2476 14.7207 69.2696 15.1937 69.2696 15.707V23H66.9486V20.426L67.3336 20.844C66.7982 21.702 66.1712 22.3327 65.4526 22.736C64.7412 23.132 63.8502 23.33 62.7796 23.33ZM63.3076 21.218C63.9089 21.218 64.4222 21.1117 64.8476 20.899C65.2729 20.6863 65.6102 20.426 65.8596 20.118C66.1162 19.81 66.2886 19.5203 66.3766 19.249C66.5159 18.9117 66.5929 18.5267 66.6076 18.094C66.6296 17.654 66.6406 17.2983 66.6406 17.027L67.4546 17.269C66.6552 17.3937 65.9696 17.5037 65.3976 17.599C64.8256 17.6943 64.3342 17.786 63.9236 17.874C63.5129 17.9547 63.1499 18.0463 62.8346 18.149C62.5266 18.259 62.2662 18.3873 62.0536 18.534C61.8409 18.6807 61.6759 18.8493 61.5586 19.04C61.4486 19.2307 61.3936 19.4543 61.3936 19.711C61.3936 20.0043 61.4669 20.2647 61.6136 20.492C61.7602 20.712 61.9729 20.888 62.2516 21.02C62.5376 21.152 62.8896 21.218 63.3076 21.218ZM81.4504 23V17.28C81.4504 16.906 81.4247 16.4917 81.3734 16.037C81.322 15.5823 81.201 15.146 81.0104 14.728C80.827 14.3027 80.5484 13.9543 80.1744 13.683C79.8077 13.4117 79.309 13.276 78.6784 13.276C78.341 13.276 78.0074 13.331 77.6774 13.441C77.3474 13.551 77.0467 13.7417 76.7754 14.013C76.5114 14.277 76.2987 14.6437 76.1374 15.113C75.976 15.575 75.8954 16.169 75.8954 16.895L74.3224 16.224C74.3224 15.212 74.5167 14.2953 74.9054 13.474C75.3014 12.6527 75.8807 12 76.6434 11.516C77.406 11.0247 78.3447 10.779 79.4594 10.779C80.3394 10.779 81.0654 10.9257 81.6374 11.219C82.2094 11.5123 82.664 11.8863 83.0014 12.341C83.3387 12.7957 83.588 13.2797 83.7494 13.793C83.9107 14.3063 84.0134 14.794 84.0574 15.256C84.1087 15.7107 84.1344 16.081 84.1344 16.367V23H81.4504ZM73.2114 23V11.12H75.5764V14.805H75.8954V23H73.2114ZM88.3248 9.316V6.885H90.9758V9.316H88.3248ZM88.3248 23V11.12H90.9758V23H88.3248Z" fill="#506DB5"/>
</g>
<defs>
<filter id="filter0_d_6_2" x="-3.78" y="6.82999" width="150.658" height="29.45" filterUnits="userSpaceOnUse" color-interpolation-filters="sRGB">
<feFlood flood-opacity="0" result="BackgroundImageFix"/>
<feColorMatrix in="SourceAlpha" type="matrix" values="0 0 0 0 0 0 0 0 0 0 0 0 0 0 0 0 0 0 127 0" result="hardAlpha"/>
<feOffset dy="4"/>
<feGaussianBlur stdDeviation="2"/>
<feComposite in2="hardAlpha" operator="out"/>
<feColorMatrix type="matrix" values="0 0 0 0 0 0 0 0 0 0 0 0 0 0 0 0 0 0 0.25 0"/>
<feBlend mode="normal" in2="BackgroundImageFix" result="effect1_dropShadow_6_2"/>
<feBlend mode="normal" in="SourceGraphic" in2="effect1_dropShadow_6_2" result="shape"/>
</filter>
</defs>
</svg>
